<svg width="39" height="39" viewBox="0 0 39 39" fill="none" xmlns="http://www.w3.org/2000/svg">
<path d="M19.5 0C15.6433 0 11.8731 1.14365 8.66639 3.28634C5.45963 5.42903 2.96027 8.47451 1.48436 12.0377C0.00844908 15.6008 -0.377716 19.5216 0.374696 23.3043C1.12711 27.0869 2.9843 30.5615 5.71142 33.2886C8.43855 36.0157 11.9131 37.8729 15.6957 38.6253C19.4784 39.3777 23.3992 38.9916 26.9623 37.5156C30.5255 36.0397 33.571 33.5404 35.7137 30.3336C37.8563 27.1269 39 23.3567 39 19.5C38.995 14.3298 36.939 9.37278 33.2831 5.7169C29.6272 2.06102 24.6702 0.00496419 19.5 0Z" fill="black"/>
<path d="M19.5 0C15.6433 0 11.8731 1.14365 8.66639 3.28634C5.45963 5.42903 2.96027 8.47451 1.48436 12.0377C0.00844905 15.6008 -0.377716 19.5216 0.374696 23.3043C1.12711 27.0869 2.9843 30.5615 5.71143 33.2886C8.43855 36.0157 11.9131 37.8729 15.6957 38.6253C19.4784 39.3777 23.3992 38.9916 26.9623 37.5156C30.5255 36.0397 33.571 33.5404 35.7137 30.3336C37.8563 27.1269 39 23.3567 39 19.5C38.995 14.3298 36.939 9.37278 33.2831 5.7169C29.6272 2.06102 24.6702 0.00496419 19.5 0ZM27 21H21V27C21 27.3978 20.842 27.7794 20.5607 28.0607C20.2794 28.342 19.8978 28.5 19.5 28.5C19.1022 28.5 18.7206 28.342 18.4393 28.0607C18.158 27.7794 18 27.3978 18 27V21H12C11.6022 21 11.2207 20.842 10.9393 20.5607C10.658 20.2794 10.5 19.8978 10.5 19.5C10.5 19.1022 10.658 18.7206 10.9393 18.4393C11.2207 18.158 11.6022 18 12 18H18V12C18 11.6022 18.158 11.2206 18.4393 10.9393C18.7206 10.658 19.1022 10.5 19.5 10.5C19.8978 10.5 20.2794 10.658 20.5607 10.9393C20.842 11.2206 21 11.6022 21 12V18H27C27.3978 18 27.7794 18.158 28.0607 18.4393C28.342 18.7206 28.5 19.1022 28.5 19.5C28.5 19.8978 28.342 20.2794 28.0607 20.5607C27.7794 20.842 27.3978 21 27 21Z" fill="#FFCB45"/>
</svg>
