<svg width="24" height="25" viewBox="0 0 24 25" fill="none" xmlns="http://www.w3.org/2000/svg">
<path d="M21.7125 16.9156C21.5467 18.1816 20.9267 19.3443 19.9679 20.1876C19.0092 21.0308 17.7768 21.4972 16.5 21.5C9.05625 21.5 3 15.4438 3 8.00001C3.00281 6.72319 3.46919 5.49083 4.31243 4.53206C5.15566 3.57329 6.31837 2.95336 7.58437 2.78751C7.90711 2.75172 8.23284 2.81967 8.51435 2.9815C8.79586 3.14332 9.01851 3.39061 9.15 3.68751L11.0344 8.08438C11.1321 8.31261 11.1713 8.56163 11.1484 8.80885C11.1255 9.05607 11.0412 9.29364 10.9031 9.50001L9.34687 11.8813C10.0516 13.3114 11.2127 14.466 12.6469 15.1625L15 13.5969C15.2061 13.4579 15.4443 13.3738 15.692 13.3525C15.9397 13.3312 16.1888 13.3733 16.4156 13.475L20.8125 15.35C21.1094 15.4815 21.3567 15.7041 21.5185 15.9857C21.6803 16.2672 21.7483 16.5929 21.7125 16.9156ZM14.7562 4.97188C15.8979 5.28377 16.9384 5.88794 17.7752 6.72477C18.6121 7.56159 19.2162 8.60215 19.5281 9.74376C19.5695 9.90404 19.6627 10.0461 19.7933 10.1479C19.9239 10.2496 20.0845 10.3053 20.25 10.3063C20.3166 10.3061 20.3829 10.2967 20.4469 10.2781C20.5422 10.2532 20.6316 10.2095 20.7098 10.1495C20.7881 10.0896 20.8535 10.0146 20.9024 9.92908C20.9513 9.84352 20.9827 9.74905 20.9946 9.65123C21.0065 9.55341 20.9988 9.45419 20.9719 9.35938C20.5969 7.96128 19.8607 6.68644 18.8371 5.66289C17.8136 4.63934 16.5387 3.90311 15.1406 3.52813C15.0428 3.49249 14.9386 3.47761 14.8347 3.48444C14.7308 3.49127 14.6295 3.51965 14.5372 3.56779C14.4448 3.61593 14.3635 3.68277 14.2985 3.76404C14.2334 3.84532 14.1859 3.93925 14.1591 4.03987C14.1324 4.14049 14.1268 4.24558 14.1429 4.34846C14.1589 4.45133 14.1962 4.54974 14.2524 4.63741C14.3086 4.72508 14.3824 4.8001 14.4691 4.85769C14.5559 4.91527 14.6536 4.95416 14.7562 4.97188ZM13.9781 7.86876C14.6127 8.04246 15.1911 8.37848 15.6563 8.8437C16.1215 9.30892 16.4575 9.8873 16.6312 10.5219C16.6712 10.683 16.764 10.826 16.8949 10.928C17.0258 11.03 17.1872 11.0851 17.3531 11.0844C17.4167 11.085 17.48 11.0755 17.5406 11.0563C17.6368 11.0323 17.7272 10.9894 17.8065 10.9299C17.8857 10.8704 17.9523 10.7956 18.0021 10.7099C18.0519 10.6242 18.0841 10.5294 18.0966 10.4311C18.1091 10.3328 18.1018 10.2329 18.075 10.1375C17.8382 9.24642 17.3702 8.43374 16.7182 7.78179C16.0663 7.12983 15.2536 6.66177 14.3625 6.42501C14.2647 6.38937 14.1605 6.37449 14.0566 6.38131C13.9527 6.38814 13.8514 6.41653 13.759 6.46467C13.6667 6.51281 13.5854 6.57964 13.5203 6.66092C13.4553 6.74219 13.4078 6.83613 13.381 6.93675C13.3542 7.03736 13.3487 7.14246 13.3647 7.24533C13.3808 7.34821 13.4181 7.44662 13.4743 7.53429C13.5304 7.62196 13.6042 7.69698 13.691 7.75456C13.7777 7.81214 13.8755 7.85104 13.9781 7.86876Z" fill="#8A91A8"/>
</svg>
