<svg width="24" height="25" viewBox="0 0 24 25" fill="none" xmlns="http://www.w3.org/2000/svg">
<path d="M12.375 2.75C9.89012 2.75495 7.50843 3.74427 5.75135 5.50135C3.99427 7.25843 3.00495 9.64012 3 12.125V20.0281C3 20.4185 3.15507 20.7929 3.4311 21.0689C3.70713 21.3449 4.08151 21.5 4.47188 21.5H12.375C14.8614 21.5 17.246 20.5123 19.0041 18.7541C20.7623 16.996 21.75 14.6114 21.75 12.125C21.75 9.6386 20.7623 7.25403 19.0041 5.49587C17.246 3.73772 14.8614 2.75 12.375 2.75ZM7.875 13.625C7.6525 13.625 7.43499 13.559 7.24998 13.4354C7.06498 13.3118 6.92078 13.1361 6.83564 12.9305C6.75049 12.725 6.72821 12.4988 6.77162 12.2805C6.81502 12.0623 6.92217 11.8618 7.0795 11.7045C7.23684 11.5472 7.43729 11.44 7.65552 11.3966C7.87375 11.3532 8.09995 11.3755 8.30552 11.4606C8.51109 11.5458 8.68679 11.69 8.8104 11.875C8.93402 12.06 9 12.2775 9 12.5C9 12.7984 8.88147 13.0845 8.6705 13.2955C8.45952 13.5065 8.17337 13.625 7.875 13.625ZM12.375 13.625C12.1525 13.625 11.935 13.559 11.75 13.4354C11.565 13.3118 11.4208 13.1361 11.3356 12.9305C11.2505 12.725 11.2282 12.4988 11.2716 12.2805C11.315 12.0623 11.4222 11.8618 11.5795 11.7045C11.7368 11.5472 11.9373 11.44 12.1555 11.3966C12.3738 11.3532 12.6 11.3755 12.8055 11.4606C13.0111 11.5458 13.1868 11.69 13.3104 11.875C13.434 12.06 13.5 12.2775 13.5 12.5C13.5 12.7984 13.3815 13.0845 13.1705 13.2955C12.9595 13.5065 12.6734 13.625 12.375 13.625ZM16.875 13.625C16.6525 13.625 16.435 13.559 16.25 13.4354C16.065 13.3118 15.9208 13.1361 15.8356 12.9305C15.7505 12.725 15.7282 12.4988 15.7716 12.2805C15.815 12.0623 15.9222 11.8618 16.0795 11.7045C16.2368 11.5472 16.4373 11.44 16.6555 11.3966C16.8738 11.3532 17.1 11.3755 17.3055 11.4606C17.5111 11.5458 17.6868 11.69 17.8104 11.875C17.934 12.06 18 12.2775 18 12.5C18 12.7984 17.8815 13.0845 17.6705 13.2955C17.4595 13.5065 17.1734 13.625 16.875 13.625Z" fill="black"/>
</svg>
