<svg xmlns="http://www.w3.org/2000/svg" xmlns:xlink="http://www.w3.org/1999/xlink" version="1.1" width="16" height="16" viewBox="0 0 256 256" xml:space="preserve">

<defs>
</defs>
<g style="stroke: none; stroke-width: 0; stroke-dasharray: none; stroke-linecap: butt; stroke-linejoin: miter; stroke-miterlimit: 10; fill: none; fill-rule: nonzero; opacity: 1;" transform="translate(1.4065934065934016 1.4065934065934016) scale(2.81 2.81)" >
	<path d="M 13.148 79.853 c -0.768 0 -1.536 -0.293 -2.121 -0.879 c -1.172 -1.171 -1.172 -3.071 0 -4.242 l 63.705 -63.705 c 1.172 -1.172 3.07 -1.172 4.242 0 c 1.172 1.171 1.172 3.071 0 4.242 L 15.269 78.974 C 14.684 79.56 13.916 79.853 13.148 79.853 z" style="stroke: none; stroke-width: 1; stroke-dasharray: none; stroke-linecap: butt; stroke-linejoin: miter; stroke-miterlimit: 10; fill: rgb(0,0,0); fill-rule: nonzero; opacity: 1;" transform=" matrix(1 0 0 1 0 0) " stroke-linecap="round" />
	<path d="M 67.676 24.89 c -0.127 -0.929 -0.682 -1.746 -1.498 -2.207 c -21.92 -12.368 -43.952 -5.505 -65.485 20.399 c -0.924 1.111 -0.924 2.724 0 3.835 c 7.63 9.18 15.413 16.043 23.129 20.397 c 0.462 0.261 0.97 0.388 1.474 0.388 c 0.777 0 1.545 -0.301 2.122 -0.879 l 9.102 -9.103 c -0.561 0.564 -1.324 0.883 -2.12 0.885 c -0.002 0 -0.004 0 -0.007 0 c -0.795 0 -1.558 -0.315 -2.121 -0.878 C 28.873 54.329 27 49.809 27 45 c 0 -9.925 8.075 -18 18 -18 c 4.749 0 9.23 1.833 12.617 5.163 c 0.569 0.56 0.893 1.322 0.897 2.12 s -0.308 1.565 -0.869 2.132 L 36.594 57.648 l 30.231 -30.231 C 67.487 26.754 67.803 25.819 67.676 24.89 z" style="stroke: none; stroke-width: 1; stroke-dasharray: none; stroke-linecap: butt; stroke-linejoin: miter; stroke-miterlimit: 10; fill: rgb(0,0,0); fill-rule: nonzero; opacity: 1;" transform=" matrix(1 0 0 1 0 0) " stroke-linecap="round" />
	<path d="M 89.307 43.083 c -4.766 -5.734 -9.613 -10.593 -14.409 -14.442 c -1.194 -0.958 -2.917 -0.863 -3.999 0.219 l -9.231 9.231 c 0.884 2.129 1.376 4.461 1.376 6.909 c 0 9.965 -8.078 18.044 -18.044 18.044 c -2.448 0 -4.78 -0.493 -6.909 -1.376 l -5.08 5.08 c -0.753 0.753 -1.05 1.848 -0.782 2.878 c 0.268 1.03 1.063 1.841 2.087 2.13 c 3.552 1.004 7.104 1.505 10.657 1.505 c 14.901 0 29.77 -8.822 44.333 -26.342 C 90.231 45.806 90.231 44.194 89.307 43.083 z" style="stroke: none; stroke-width: 1; stroke-dasharray: none; stroke-linecap: butt; stroke-linejoin: miter; stroke-miterlimit: 10; fill: rgb(0,0,0); fill-rule: nonzero; opacity: 1;" transform=" matrix(1 0 0 1 0 0) " stroke-linecap="round" />
</g>
</svg>