<svg width="33" height="33" viewBox="0 0 33 33" fill="none" xmlns="http://www.w3.org/2000/svg">
<rect width="33" height="33" rx="16.5" fill="#FFCB45"/>
<path d="M13.1816 16.5V12.1C13.1816 11.2248 13.5312 10.3855 14.1535 9.7666C14.7758 9.14773 15.6199 8.80005 16.5 8.80005C17.3801 8.80005 18.2242 9.14773 18.8465 9.7666C19.4688 10.3855 19.8184 11.2248 19.8184 12.1V16.5C19.8184 17.3753 19.4688 18.2146 18.8465 18.8335C18.2242 19.4524 17.3801 19.8 16.5 19.8C15.6199 19.8 14.7758 19.4524 14.1535 18.8335C13.5312 18.2146 13.1816 17.3753 13.1816 16.5ZM21.5053 16.5069C21.3606 16.4914 21.2156 16.5332 21.1018 16.6233C20.9879 16.7134 20.9143 16.8445 20.8969 16.9882C20.7755 18.0633 20.26 19.0563 19.4489 19.7773C18.6378 20.4984 17.5879 20.897 16.5 20.897C15.412 20.897 14.3622 20.4984 13.5511 19.7773C12.74 19.0563 12.2245 18.0633 12.1031 16.9882C12.0857 16.8445 12.0121 16.7134 11.8982 16.6233C11.7844 16.5332 11.6394 16.4914 11.4947 16.5069C11.4222 16.5138 11.3518 16.5349 11.2876 16.5692C11.2234 16.6035 11.1668 16.6502 11.1211 16.7066C11.0754 16.763 11.0414 16.8279 11.0213 16.8975C11.0012 16.9671 10.9952 17.04 11.0038 17.1119C11.1453 18.3598 11.7135 19.5215 12.6133 20.4026C13.5132 21.2837 14.69 21.8306 15.9469 21.9519V23.65C15.9469 23.7959 16.0052 23.9358 16.1089 24.039C16.2126 24.1421 16.3533 24.2 16.5 24.2C16.6467 24.2 16.7874 24.1421 16.8911 24.039C16.9948 23.9358 17.0531 23.7959 17.0531 23.65V21.9519C18.31 21.8306 19.4868 21.2837 20.3867 20.4026C21.2865 19.5215 21.8547 18.3598 21.9962 17.1119C22.0048 17.04 21.9988 16.9671 21.9787 16.8975C21.9586 16.8279 21.9246 16.763 21.8789 16.7066C21.8332 16.6502 21.7766 16.6035 21.7124 16.5692C21.6482 16.5349 21.5778 16.5138 21.5053 16.5069Z" fill="black"/>
</svg>
