<svg width="33" height="33" viewBox="0 0 33 33" fill="none" xmlns="http://www.w3.org/2000/svg">
<path d="M16.9815 3.98145C14.4103 3.98145 11.8969 4.74388 9.75904 6.17234C7.6212 7.6008 5.95496 9.63112 4.97102 12.0066C3.98708 14.382 3.72963 16.9959 4.23124 19.5176C4.73285 22.0394 5.97098 24.3557 7.78906 26.1738C9.60715 27.9919 11.9235 29.23 14.4453 29.7317C16.967 30.2333 19.5809 29.9758 21.9563 28.9919C24.3318 28.0079 26.3621 26.3417 27.7906 24.2039C29.219 22.066 29.9814 19.5526 29.9814 16.9814C29.9748 13.5357 28.6031 10.2329 26.1665 7.79636C23.73 5.35981 20.4272 3.98805 16.9815 3.98145ZM21.5314 17.8189L15.5315 21.8189C15.366 21.9213 15.176 21.9775 14.9815 21.9814C14.8165 21.9813 14.6539 21.9428 14.5064 21.8689C14.3466 21.7827 14.2132 21.6544 14.1207 21.4981C14.0282 21.3417 13.9801 21.1631 13.9815 20.9814V12.9814C13.9801 12.7998 14.0282 12.6212 14.1207 12.4648C14.2132 12.3084 14.3466 12.1802 14.5064 12.0939C14.667 12.0127 14.8459 11.9746 15.0256 11.9833C15.2053 11.9921 15.3796 12.0475 15.5315 12.1439L21.5314 16.1439C21.6707 16.2348 21.7851 16.359 21.8643 16.5052C21.9435 16.6515 21.985 16.8151 21.985 16.9814C21.985 17.1477 21.9435 17.3114 21.8643 17.4577C21.7851 17.6039 21.6707 17.7281 21.5314 17.8189Z" fill="black"/>
</svg>
