<svg width="24" height="25" viewBox="0 0 24 25" fill="none" xmlns="http://www.w3.org/2000/svg">
<path d="M21.7406 21.125C21.6765 21.24 21.5826 21.3355 21.4687 21.4015C21.3549 21.4675 21.2253 21.5015 21.0937 21.5H2.90622C2.77463 21.5015 2.64508 21.4675 2.53123 21.4015C2.41738 21.3355 2.32345 21.24 2.25934 21.125C2.19063 21.012 2.1543 20.8823 2.1543 20.75C2.1543 20.6178 2.19063 20.4881 2.25934 20.375C3.65878 17.9643 5.89881 16.1549 8.54997 15.2938C7.2792 14.5381 6.29169 13.3862 5.73912 12.0148C5.18656 10.6435 5.09951 9.12868 5.49135 7.70309C5.88319 6.2775 6.73225 5.01998 7.90809 4.12373C9.08393 3.22748 10.5215 2.74207 12 2.74207C13.4784 2.74207 14.916 3.22748 16.0918 4.12373C17.2677 5.01998 18.1167 6.2775 18.5086 7.70309C18.9004 9.12868 18.8134 10.6435 18.2608 12.0148C17.7082 13.3862 16.7207 14.5381 15.45 15.2938C18.1011 16.1549 20.3412 17.9643 21.7406 20.375C21.8093 20.4881 21.8456 20.6178 21.8456 20.75C21.8456 20.8823 21.8093 21.012 21.7406 21.125Z" fill="#8A91A8"/>
</svg>
