<svg width="24" height="25" viewBox="0 0 24 25" fill="none" xmlns="http://www.w3.org/2000/svg">
<path d="M16.4999 11.375C16.4999 12.4875 16.17 13.5751 15.5519 14.5001C14.9338 15.4251 14.0553 16.1461 13.0275 16.5718C11.9997 16.9976 10.8687 17.109 9.77752 16.8919C8.68638 16.6749 7.6841 16.1392 6.89743 15.3525C6.11076 14.5658 5.57503 13.5635 5.35798 12.4724C5.14094 11.3813 5.25234 10.2503 5.67808 9.22243C6.10382 8.19459 6.82479 7.31609 7.74982 6.69801C8.67485 6.07992 9.76238 5.75002 10.8749 5.75002C12.3667 5.75002 13.7975 6.34266 14.8524 7.39755C15.9073 8.45244 16.4999 9.88318 16.4999 11.375ZM21.5343 22.0344C21.3909 22.173 21.1993 22.2505 20.9999 22.2505C20.8005 22.2505 20.6089 22.173 20.4655 22.0344L16.4155 17.975C14.7098 19.4077 12.5169 20.1266 10.294 19.9817C8.07118 19.8369 5.99008 18.8394 4.48476 17.1975C2.97944 15.5555 2.16612 13.3958 2.21444 11.1688C2.26276 8.94175 3.16898 6.81934 4.7441 5.24422C6.31922 3.6691 8.44163 2.76288 10.6687 2.71456C12.8957 2.66624 15.0554 3.47956 16.6974 4.98488C18.3393 6.4902 19.3367 8.57131 19.4816 10.7942C19.6265 13.017 18.9076 15.2099 17.4749 16.9156L21.5343 20.9656C21.6751 21.1078 21.7541 21.2999 21.7541 21.5C21.7541 21.7002 21.6751 21.8922 21.5343 22.0344ZM10.8749 18.5C12.2841 18.5 13.6616 18.0822 14.8333 17.2992C16.005 16.5163 16.9183 15.4036 17.4575 14.1016C17.9968 12.7997 18.1379 11.3671 17.863 9.985C17.5881 8.60289 16.9095 7.33334 15.913 6.33689C14.9166 5.34044 13.647 4.66185 12.2649 4.38693C10.8828 4.11201 9.45021 4.25311 8.14828 4.79238C6.84636 5.33166 5.73359 6.24489 4.95068 7.41659C4.16778 8.58829 3.7499 9.96583 3.7499 11.375C3.75238 13.2639 4.50385 15.0748 5.83951 16.4104C7.17516 17.7461 8.986 18.4975 10.8749 18.5Z" fill="#8A91A8"/>
</svg>
