<svg width="33" height="33" viewBox="0 0 33 33" fill="none" xmlns="http://www.w3.org/2000/svg">
<path d="M16.5 0C13.2366 0 10.0465 0.967708 7.3331 2.78075C4.61969 4.59379 2.50484 7.17074 1.25599 10.1857C0.00714922 13.2007 -0.319606 16.5183 0.31705 19.719C0.953706 22.9197 2.52518 25.8597 4.83274 28.1673C7.14031 30.4748 10.0803 32.0463 13.281 32.6829C16.4817 33.3196 19.7993 32.9929 22.8143 31.744C25.8293 30.4952 28.4062 28.3803 30.2192 25.6669C32.0323 22.9535 33 19.7634 33 16.5C32.9958 12.1252 31.2561 7.93082 28.1626 4.83738C25.0692 1.74394 20.8748 0.00420047 16.5 0Z" fill="black"/>
<path d="M16.5 0C13.2366 0 10.0465 0.967708 7.3331 2.78075C4.61969 4.59379 2.50484 7.17074 1.25599 10.1857C0.0071491 13.2007 -0.319606 16.5183 0.31705 19.719C0.953706 22.9197 2.52518 25.8597 4.83274 28.1673C7.14031 30.4748 10.0803 32.0463 13.281 32.6829C16.4817 33.3196 19.7993 32.9929 22.8143 31.744C25.8293 30.4952 28.4062 28.3803 30.2192 25.6669C32.0323 22.9535 33 19.7634 33 16.5C32.9958 12.1252 31.2561 7.93082 28.1626 4.83738C25.0692 1.74394 20.8748 0.00420047 16.5 0ZM22.8462 17.7692H17.7692V22.8461C17.7692 23.1828 17.6355 23.5056 17.3975 23.7436C17.1595 23.9817 16.8366 24.1154 16.5 24.1154C16.1634 24.1154 15.8405 23.9817 15.6025 23.7436C15.3645 23.5056 15.2308 23.1828 15.2308 22.8461V17.7692H10.1539C9.81723 17.7692 9.4944 17.6355 9.25637 17.3975C9.01834 17.1595 8.88462 16.8366 8.88462 16.5C8.88462 16.1634 9.01834 15.8405 9.25637 15.6025C9.4944 15.3645 9.81723 15.2308 10.1539 15.2308H15.2308V10.1538C15.2308 9.81722 15.3645 9.49439 15.6025 9.25636C15.8405 9.01834 16.1634 8.88461 16.5 8.88461C16.8366 8.88461 17.1595 9.01834 17.3975 9.25636C17.6355 9.49439 17.7692 9.81722 17.7692 10.1538V15.2308H22.8462C23.1828 15.2308 23.5056 15.3645 23.7436 15.6025C23.9817 15.8405 24.1154 16.1634 24.1154 16.5C24.1154 16.8366 23.9817 17.1595 23.7436 17.3975C23.5056 17.6355 23.1828 17.7692 22.8462 17.7692Z" fill="#FFCB45"/>
</svg>
